<?xml version="1.0" encoding="UTF-8" standalone="no"?>
<!-- Created with Inkscape (http://www.inkscape.org/) -->

<svg
   xmlns:dc="http://purl.org/dc/elements/1.1/"
   xmlns:cc="http://creativecommons.org/ns#"
   xmlns:rdf="http://www.w3.org/1999/02/22-rdf-syntax-ns#"
   xmlns:svg="http://www.w3.org/2000/svg"
   xmlns="http://www.w3.org/2000/svg"
   xmlns:sodipodi="http://sodipodi.sourceforge.net/DTD/sodipodi-0.dtd"
   xmlns:inkscape="http://www.inkscape.org/namespaces/inkscape"
   width="140mm"
   height="47mm"
   id="svg2"
   version="1.1"
   inkscape:version="0.48.4 r9939"
   sodipodi:docname="logo.svg">
  <defs
     id="defs4" />
  <sodipodi:namedview
     id="base"
     pagecolor="#ffffff"
     bordercolor="#666666"
     borderopacity="1.0"
     inkscape:pageopacity="0.0"
     inkscape:pageshadow="2"
     inkscape:zoom="1.1641667"
     inkscape:cx="289.44914"
     inkscape:cy="160.46958"
     inkscape:document-units="px"
     inkscape:current-layer="layer1"
     showgrid="false"
     inkscape:window-width="1301"
     inkscape:window-height="744"
     inkscape:window-x="65"
     inkscape:window-y="24"
     inkscape:window-maximized="1" />
  <metadata
     id="metadata7">
    <rdf:RDF>
      <cc:Work
         rdf:about="">
        <dc:format>image/svg+xml</dc:format>
        <dc:type
           rdf:resource="http://purl.org/dc/dcmitype/StillImage" />
        <dc:title></dc:title>
      </cc:Work>
    </rdf:RDF>
  </metadata>
  <g
     inkscape:label="Capa 1"
     inkscape:groupmode="layer"
     id="layer1">
    <path 
       style="fill:#000000"
       d=""
       id="path3104"
       inkscape:connector-curvature="0" />
    <g
       id="g3431">
      <path
         style="fill:#ffffff;fill-opacity:1"
         d="m 265.55515,163.80289 c -2.88725,-0.64087 -7.13089,-2.12051 -9.50664,-3.31469 -6.29016,-3.16176 -13.1224,-9.11193 -13.68338,-11.91682 -0.18767,-0.93838 -0.025,-1.26685 1.17225,-2.36721 1.92498,-1.76917 4.42905,-3.3856 5.24472,-3.3856 0.37524,0 2.00226,1.25951 3.61559,2.7989 1.61333,1.5394 3.71024,3.32987 4.65979,3.97882 5.52793,3.77798 13.75386,5.59498 21.26788,4.69781 7.62215,-0.91006 13.51728,-3.77063 18.93437,-9.18771 5.50099,-5.50101 8.39469,-11.54797 9.17778,-19.17877 0.3548,-3.45754 0.53104,-14.67826 0.23054,-14.67826 -0.0782,0 -1.32937,1.22645 -2.78024,2.72545 -3.66365,3.78514 -6.64636,5.95953 -11.24773,8.19953 -8.09699,3.94172 -17.12584,5.04511 -26.59095,3.24961 -15.24039,-2.89106 -28.36363,-15.11719 -32.35001,-30.13856 -2.8366,-10.688784 -1.19496,-23.290807 4.22108,-32.403041 5.497,-9.248461 14.55953,-16.444091 24.24569,-19.251033 4.52482,-1.311238 7.3031,-1.687283 12.53715,-1.69689 11.62619,-0.02133 20.99989,3.892671 29.12609,12.161719 1.41859,1.443528 2.6697,2.6246 2.78023,2.6246 0.11055,0 0.201,-2.744372 0.201,-6.098597 0,-7.733981 -0.13363,-7.533563 5.02236,-7.533563 5.68117,0 5.02237,-5.665188 5.02237,43.188656 0,45.132939 0.0368,44.177179 -1.92618,49.944109 -2.00345,5.88568 -5.14927,10.79785 -10.09163,15.75805 -5.4984,5.51823 -11.1971,8.98542 -18.33153,11.15322 -2.97462,0.90385 -3.72028,0.97761 -10.90587,1.07902 -5.74241,0.081 -8.30865,-0.0234 -10.04473,-0.40875 z m 18.00353,-48.74912 c 11.51592,-2.92125 20.7746,-12.49352 23.28465,-24.073266 0.75774,-3.49578 0.59747,-10.915629 -0.31548,-14.60408 -2.34063,-9.456541 -9.02079,-17.479387 -17.91013,-21.510008 -4.10649,-1.861973 -7.91697,-2.581006 -13.55594,-2.55799 -5.91931,0.02418 -9.08619,0.714547 -13.71749,2.990479 -14.38943,7.071286 -21.34378,23.90521 -16.20816,39.233997 1.31427,3.922854 2.61264,6.258448 5.41704,9.744508 4.16972,5.18326 10.23479,9.11549 16.5971,10.76053 4.69553,1.21409 11.65826,1.2208 16.40841,0.0159 z m -193.069104,18.05749 0,-4.68493 6.188282,-6.53648 c 8.908062,-9.40928 13.716862,-14.72754 14.990332,-16.57847 2.03506,-2.95785 2.90187,-5.30369 2.90187,-7.853293 0,-2.735862 -0.67749,-4.399469 -2.41179,-5.922191 -3.27052,-2.871562 -10.71085,-2.306146 -17.981365,1.366483 -1.227554,0.62008 -2.317225,1.127419 -2.421498,1.127419 -0.10424,0 -0.189607,-2.233068 -0.189607,-4.962371 l 0,-4.962363 3.122336,-0.967994 c 6.702824,-2.078009 14.399974,-2.536483 19.431204,-1.157392 8.43478,2.312044 12.8545,9.363671 11.18558,17.846594 -1.01324,5.150218 -3.45175,8.446008 -14.49026,19.584448 l -8.62144,8.69946 11.72649,0 11.72647,0 0,4.84301 0,4.843 -17.5783,0 -17.578304,0 0,-4.68493 z M 62.866525,126.09061 C 45.736337,123.9981 30.68175,115.34525 20.193033,101.56336 14.576417,94.183274 11.018531,86.532518 8.9894933,77.471654 8.2308113,74.083697 8.1585403,72.902843 8.1585403,63.895559 c 0,-9.040675 0.07027,-10.1795 0.841025,-13.623103 C 11.768905,37.898864 17.319518,27.987682 26.539482,18.953161 33.762433,11.875493 41.164833,7.2647299 49.951852,4.3702204 57.299213,1.9499545 59.489691,1.6624058 70.579461,1.6624532 c 9.083454,3.79e-5 10.3825,0.076339 13.573987,0.7976198 15.693572,3.5466013 29.422982,13.108669 38.663782,26.927998 3.15539,4.718796 5.30917,9.157802 7.08256,14.597366 2.31233,7.092709 2.74231,10.218617 2.73873,19.910122 -0.003,8.314084 -0.27719,11.022259 -1.64221,16.224356 l -0.35073,1.336614 -2.23064,-2.263092 c -1.22686,-1.244704 -3.33358,-2.876434 -4.68161,-3.626088 -2.07054,-1.151456 -2.41939,-1.480931 -2.24758,-2.122818 0.54756,-2.045633 0.98913,-9.040295 0.78014,-12.357707 -0.76347,-12.11911 -4.4337,-21.493232 -11.97621,-30.588378 -7.52202,-9.070442 -17.454983,-15.153772 -28.67523,-17.561823 -5.479853,-1.176065 -14.796838,-1.358511 -20.362254,-0.39873 -5.503027,0.949019 -9.468537,2.239631 -14.08978,4.585662 -4.951911,2.513893 -8.808347,5.333714 -13.187029,9.642325 -8.280599,8.14809 -13.087684,17.149553 -14.937679,27.971441 -0.626762,3.666365 -0.707321,5.259243 -0.535752,10.593203 0.284998,8.860333 1.464097,13.922173 4.888536,20.986347 2.427975,5.008602 5.628963,9.381621 10.241121,13.990889 10.500465,10.4939 22.028339,15.32137 36.5891,15.32223 8.102296,3.7e-4 15.192521,-1.40726 21.29996,-4.22908 l 2.716901,-1.25528 -0.903957,1.00028 c -0.497177,0.55016 -3.519828,3.76535 -6.716996,7.14486 -3.19718,3.3795 -5.813051,6.38754 -5.813051,6.68454 0,0.29701 -0.363225,0.65492 -0.807161,0.79536 -0.912679,0.28872 -15.200713,0.55559 -17.129884,0.31994 z m 300.168825,-0.3164 c -8.31363,-1.39772 -15.32396,-4.9493 -21.57283,-10.92924 -7.98628,-7.64256 -12.12621,-16.169041 -13.13997,-27.062665 -1.9409,-20.856731 10.89639,-39.687972 30.49416,-44.732373 6.16815,-1.587654 14.35877,-1.564979 20.71935,0.05737 10.54084,2.688555 20.4605,11.737565 24.8305,22.65108 1.98193,4.949635 2.57123,8.129371 2.78756,15.040619 0.19113,6.106526 0.17194,6.346458 -0.5667,7.085131 l -0.7646,0.764572 -33.54226,0 c -28.37481,0 -33.54228,0.07672 -33.54228,0.49797 0,1.2466 1.9757,7.125798 3.25239,9.678256 1.84658,3.69189 3.3327,5.67444 6.53048,8.71203 4.32158,4.10508 9.24743,6.63456 15.29789,7.85564 4.13321,0.83417 13.67438,0.57344 17.62047,-0.48148 4.38193,-1.17145 8.32087,-2.83855 11.66011,-4.93499 3.28678,-2.06351 4.37621,-2.50235 5.07367,-2.04374 0.74145,0.48749 3.34465,5.24701 3.34465,6.11512 0,1.39627 -0.62478,2.13983 -3.33442,3.96828 -5.7122,3.85456 -12.80129,6.69658 -19.35504,7.75951 -4.01025,0.65039 -11.92146,0.64985 -15.79313,-9.5e-4 z m 33.39478,-48.515548 c -0.77046,-5.036273 -2.7035,-10.104535 -5.28472,-13.856209 -1.45506,-2.11487 -5.99233,-6.288896 -8.36314,-7.693638 -5.75836,-3.411912 -13.73353,-4.435174 -21.08457,-2.705292 -3.53413,0.831674 -9.12517,3.693533 -12.05146,6.168725 -5.04638,4.26847 -8.67059,10.546915 -10.33676,17.90704 l -0.50755,2.242134 28.97189,0 28.97186,0 -0.31555,-2.06276 z M 141.34135,124.99303 c -0.34516,-0.0902 -0.72594,-0.55599 -0.84617,-1.03506 -0.23168,-0.92309 -0.64603,-0.23412 16.77652,-27.896281 l 7.4192,-11.77963 -2.41964,-3.825597 c -1.33083,-2.104077 -6.35354,-10.040779 -11.16162,-17.63712 -12.53361,-19.802032 -11.60398,-18.113117 -10.55008,-19.16702 0.766,-0.765993 8.32164,-0.812187 9.76788,-0.05974 1.59865,0.831769 2.26724,1.812338 7.50711,11.009902 7.57148,13.290254 12.00365,20.206774 12.78842,19.956675 0.22217,-0.07084 4.60121,-6.801803 9.7312,-14.957774 5.13001,-8.155971 9.76663,-15.15528 10.30362,-15.55401 0.80328,-0.596443 1.66183,-0.748923 4.84301,-0.860113 4.39325,-0.153561 5.666,0.231844 5.65204,1.711494 -0.004,0.525557 -4.84842,8.604136 -12.01782,20.044877 -6.60523,10.540485 -11.96577,19.308397 -11.91231,19.484233 0.0535,0.175846 5.50184,8.851168 12.1075,19.278504 7.69034,12.13952 12.01031,19.28831 12.01031,19.87495 0,0.53864 -0.28594,1.06921 -0.6939,1.28754 -0.86986,0.46553 -7.91734,0.48944 -9.12327,0.0309 -1.2489,-0.47484 -2.54552,-2.33792 -12.05913,-17.32757 -4.60209,-7.25106 -8.48674,-13.183743 -8.63255,-13.183743 -0.14582,0 -3.29923,4.802644 -7.00759,10.672543 -11.91672,18.86277 -12.29941,19.4141 -13.75648,19.81887 -1.26464,0.3513 -7.5053,0.43217 -8.72625,0.11307 z m 71.20748,-0.17446 c -0.4537,-0.2284 -0.97389,-0.97425 -1.18352,-1.69694 -0.25228,-0.86969 -0.3391,-13.88187 -0.26672,-39.975503 l 0.10733,-38.686095 0.84691,-0.685719 c 0.70374,-0.569805 1.43517,-0.685728 4.32693,-0.685728 3.00632,0 3.58689,0.09957 4.26514,0.731465 l 0.78514,0.731447 0,39.571301 0,39.571302 -0.75444,0.68339 c -0.60851,0.55122 -1.3891,0.69937 -4.03583,0.766 -1.90708,0.048 -3.62044,-0.0881 -4.09091,-0.32492 z m 207.73341,0.076 c -0.47361,-0.20086 -0.94463,-0.87714 -1.18273,-1.69806 -0.28046,-0.96719 -0.36462,-12.62409 -0.28915,-40.050348 l 0.10656,-38.686076 0.89411,-0.723974 c 0.79358,-0.642551 1.2927,-0.707966 4.43796,-0.581631 4.66776,0.187482 4.89204,0.425899 4.89204,5.200247 l 0,3.392936 2.06276,-1.764372 c 6.54893,-5.601566 13.14711,-8.081861 21.43478,-8.057451 9.47384,0.02789 17.12133,3.094254 23.79137,9.539442 4.64333,4.48681 7.57423,9.385399 9.02772,15.088557 0.69394,2.722874 0.72318,3.943311 0.72318,30.179994 0,24.989416 -0.0511,27.384746 -0.59289,27.834726 -0.80265,0.66654 -6.27219,0.88705 -7.6674,0.30913 -0.75321,-0.31197 -1.15988,-0.81135 -1.41826,-1.74144 -0.2278,-0.82009 -0.36293,-10.60389 -0.36419,-26.364099 -0.003,-27.877703 0.0514,-27.176471 -2.44389,-31.979725 -1.93389,-3.722693 -6.53009,-8.213477 -10.36986,-10.132063 -4.1438,-2.07048 -7.47168,-2.7437 -12.44243,-2.517043 -6.25213,0.285065 -10.6978,2.020901 -14.83187,5.791135 -2.61062,2.38092 -4.52393,5.373097 -5.74356,8.982287 l -0.97931,2.898057 -0.18278,26.982733 c -0.17119,25.274978 -0.22324,27.023248 -0.82276,27.623048 -0.50691,0.50716 -1.32761,0.65773 -3.94616,0.72403 -1.81835,0.0461 -3.6603,-0.0665 -4.09319,-0.25005 z M 214.05622,33.058591 c -0.40541,-0.164183 -1.24498,-0.876957 -1.86571,-1.583927 -1.90126,-2.165416 -1.96567,-4.956577 -0.16381,-7.097971 1.80534,-2.145511 4.53848,-2.657308 6.95069,-1.301566 4.94752,2.780655 3.07895,10.382013 -2.53311,10.304725 -0.90804,-0.01252 -1.98267,-0.15708 -2.38806,-0.321261 z"
         id="path3410"
         inkscape:connector-curvature="0" />
    </g>
  </g>
</svg>
